<?xml version="1.0" standalone="no"?>
<!DOCTYPE svg PUBLIC "-//W3C//DTD SVG 20010904//EN"
 "http://www.w3.org/TR/2001/REC-SVG-20010904/DTD/svg10.dtd">
<svg version="1.0" xmlns="http://www.w3.org/2000/svg"
 width="225.000000pt" height="225.000000pt" viewBox="0 0 225.000000 225.000000"
 preserveAspectRatio="xMidYMid meet">

<g transform="translate(0.000000,225.000000) scale(0.100000,-0.100000)"
fill="#000000" stroke="none">
<path d="M974 2045 c-371 -65 -659 -339 -751 -713 -25 -103 -23 -312 5 -425
83 -334 350 -599 689 -684 104 -26 342 -23 448 6 89 24 221 83 293 132 68 47
178 155 228 225 57 80 119 210 145 309 29 106 32 344 6 448 -70 280 -269 519
-530 637 -149 67 -370 94 -533 65z m324 -120 c302 -63 544 -297 623 -600 27
-103 29 -269 5 -375 -36 -156 -152 -347 -269 -443 -305 -249 -730 -254 -1034
-12 -281 223 -380 617 -242 951 97 233 327 425 574 477 91 20 255 21 343 2z"/>
<path d="M1121 1764 c15 -52 3 -89 -47 -145 -56 -63 -73 -97 -79 -156 -6 -50
-1 -45 25 24 7 17 36 60 66 94 60 69 73 110 55 170 -15 49 -33 61 -20 13z"/>
<path d="M1211 1619 c-1 -30 -24 -63 -93 -134 -62 -65 -74 -104 -49 -160 10
-23 24 -46 31 -50 7 -4 5 5 -4 23 -30 58 -18 95 64 188 54 62 64 85 57 130 -4
28 -4 28 -6 3z"/>
<path d="M707 1213 c-15 -4 -17 -12 -12 -51 21 -156 109 -303 222 -369 24 -14
43 -31 43 -39 0 -11 27 -14 146 -14 135 0 146 1 151 19 3 11 18 25 35 32 33
14 144 120 152 147 5 13 24 20 78 29 63 10 77 16 105 47 28 30 33 43 33 85 0
60 -26 96 -78 111 -36 10 -837 13 -875 3z m857 -73 c21 -8 26 -16 26 -44 0
-29 -5 -38 -30 -51 -41 -21 -73 -20 -66 3 3 9 10 36 16 60 12 45 15 47 54 32z
m-424 -48 c0 -5 -11 -14 -24 -20 -15 -6 -29 -26 -36 -49 -11 -35 -65 -103 -81
-103 -13 0 -19 49 -8 77 12 33 56 82 84 93 26 11 65 12 65 2z m54 -62 c22 0
66 -54 66 -82 0 -15 -4 -28 -8 -28 -14 0 -50 38 -57 60 -3 11 -10 20 -15 20
-13 0 28 -67 45 -74 8 -3 15 -10 15 -16 0 -16 -48 -12 -76 7 -24 15 -27 15
-54 0 -30 -18 -90 -23 -90 -7 0 5 9 14 21 20 11 7 32 36 45 65 15 34 34 60 51
69 27 14 28 14 37 -10 6 -13 14 -24 20 -24z"/>
<path d="M955 700 c-178 -4 -200 -7 -203 -22 -2 -12 5 -19 25 -23 30 -7 35 -9
76 -39 25 -17 43 -18 287 -11 251 7 261 8 282 30 13 12 38 26 56 30 23 5 32
12 30 23 -3 15 -23 17 -178 17 -96 1 -265 -2 -375 -5z"/>
</g>
</svg>
